  0
SECTION
  2
HEADER
  9
$ACADVER
  1
AC1024
  9
$ACADMAINTVER
 70
6
  9
$DWGCODEPAGE
  3
ANSI_1252
  9
$LASTSAVEDBY
  1
ezdxf
  9
$INSBASE
 10
0.0
 20
0.0
 30
0.0
  9
$EXTMIN
 10
1e+20
 20
1e+20
 30
1e+20
  9
$EXTMAX
 10
-1e+20
 20
-1e+20
 30
-1e+20
  9
$LIMMIN
 10
0.0
 20
0.0
  9
$LIMMAX
 10
420.0
 20
297.0
  9
$ORTHOMODE
 70
0
  9
$REGENMODE
 70
1
  9
$FILLMODE
 70
1
  9
$QTEXTMODE
 70
0
  9
$MIRRTEXT
 70
1
  9
$LTSCALE
 40
1.0
  9
$ATTMODE
 70
1
  9
$TEXTSIZE
 40
2.5
  9
$TRACEWID
 40
1.0
  9
$TEXTSTYLE
  7
Standard
  9
$CLAYER
  8
0
  9
$CELTYPE
  6
ByLayer
  9
$CECOLOR
 62
256
  9
$CELTSCALE
 40
1.0
  9
$DISPSILH
 70
0
  9
$DIMSCALE
 40
1.0
  9
$DIMASZ
 40
2.5
  9
$DIMEXO
 40
0.625
  9
$DIMDLI
 40
3.75
  9
$DIMRND
 40
0.0
  9
$DIMDLE
 40
0.0
  9
$DIMEXE
 40
1.25
  9
$DIMTP
 40
0.0
  9
$DIMTM
 40
0.0
  9
$DIMTXT
 40
2.5
  9
$DIMCEN
 40
2.5
  9
$DIMTSZ
 40
0.0
  9
$DIMTOL
 70
0
  9
$DIMLIM
 70
0
  9
$DIMTIH
 70
0
  9
$DIMTOH
 70
0
  9
$DIMSE1
 70
0
  9
$DIMSE2
 70
0
  9
$DIMTAD
 70
1
  9
$DIMZIN
 70
8
  9
$DIMBLK
  1

  9
$DIMASO
 70
1
  9
$DIMSHO
 70
1
  9
$DIMPOST
  1

  9
$DIMAPOST
  1

  9
$DIMALT
 70
0
  9
$DIMALTD
 70
3
  9
$DIMALTF
 40
0.03937007874
  9
$DIMLFAC
 40
1.0
  9
$DIMTOFL
 70
1
  9
$DIMTVP
 40
0.0
  9
$DIMTIX
 70
0
  9
$DIMSOXD
 70
0
  9
$DIMSAH
 70
0
  9
$DIMBLK1
  1

  9
$DIMBLK2
  1

  9
$DIMSTYLE
  2
ISO-25
  9
$DIMCLRD
 70
0
  9
$DIMCLRE
 70
0
  9
$DIMCLRT
 70
0
  9
$DIMTFAC
 40
1.0
  9
$DIMGAP
 40
0.625
  9
$DIMJUST
 70
0
  9
$DIMSD1
 70
0
  9
$DIMSD2
 70
0
  9
$DIMTOLJ
 70
0
  9
$DIMTZIN
 70
8
  9
$DIMALTZ
 70
0
  9
$DIMALTTZ
 70
0
  9
$DIMUPT
 70
0
  9
$DIMDEC
 70
2
  9
$DIMTDEC
 70
2
  9
$DIMALTU
 70
2
  9
$DIMALTTD
 70
3
  9
$DIMTXSTY
  7
Standard
  9
$DIMAUNIT
 70
0
  9
$DIMADEC
 70
0
  9
$DIMALTRND
 40
0.0
  9
$DIMAZIN
 70
0
  9
$DIMDSEP
 70
44
  9
$DIMATFIT
 70
3
  9
$DIMFRAC
 70
0
  9
$DIMLDRBLK
  1

  9
$DIMLUNIT
 70
2
  9
$DIMLWD
 70
-2
  9
$DIMLWE
 70
-2
  9
$DIMTMOVE
 70
0
  9
$DIMFXL
 40
1.0
  9
$DIMFXLON
 70
0
  9
$DIMJOGANG
 40
0.785398163397
  9
$DIMTFILL
 70
0
  9
$DIMTFILLCLR
 70
0
  9
$DIMARCSYM
 70
0
  9
$DIMLTYPE
  6

  9
$DIMLTEX1
  6

  9
$DIMLTEX2
  6

  9
$DIMTXTDIRECTION
 70
0
  9
$LUNITS
 70
2
  9
$LUPREC
 70
4
  9
$SKETCHINC
 40
1.0
  9
$FILLETRAD
 40
10.0
  9
$AUNITS
 70
0
  9
$AUPREC
 70
2
  9
$MENU
  1
.
  9
$ELEVATION
 40
0.0
  9
$PELEVATION
 40
0.0
  9
$THICKNESS
 40
0.0
  9
$LIMCHECK
 70
0
  9
$CHAMFERA
 40
0.0
  9
$CHAMFERB
 40
0.0
  9
$CHAMFERC
 40
0.0
  9
$CHAMFERD
 40
0.0
  9
$SKPOLY
 70
0
  9
$TDCREATE
 40
2460836.5380439814
  9
$TDUCREATE
 40
2458532.153996898
  9
$TDUPDATE
 40
2460836.5380439814
  9
$TDUUPDATE
 40
2458532.1544311
  9
$TDINDWG
 40
0.0
  9
$TDUSRTIMER
 40
0.0
  9
$USRTIMER
 70
1
  9
$ANGBASE
 50
0.0
  9
$ANGDIR
 70
0
  9
$PDMODE
 70
0
  9
$PDSIZE
 40
0.0
  9
$PLINEWID
 40
0.0
  9
$SPLFRAME
 70
0
  9
$SPLINETYPE
 70
6
  9
$SPLINESEGS
 70
8
  9
$HANDSEED
  5
3C
  9
$SURFTAB1
 70
6
  9
$SURFTAB2
 70
6
  9
$SURFTYPE
 70
6
  9
$SURFU
 70
6
  9
$SURFV
 70
6
  9
$UCSBASE
  2

  9
$UCSNAME
  2

  9
$UCSORG
 10
0.0
 20
0.0
 30
0.0
  9
$UCSXDIR
 10
1.0
 20
0.0
 30
0.0
  9
$UCSYDIR
 10
0.0
 20
1.0
 30
0.0
  9
$UCSORTHOREF
  2

  9
$UCSORTHOVIEW
 70
0
  9
$UCSORGTOP
 10
0.0
 20
0.0
 30
0.0
  9
$UCSORGBOTTOM
 10
0.0
 20
0.0
 30
0.0
  9
$UCSORGLEFT
 10
0.0
 20
0.0
 30
0.0
  9
$UCSORGRIGHT
 10
0.0
 20
0.0
 30
0.0
  9
$UCSORGFRONT
 10
0.0
 20
0.0
 30
0.0
  9
$UCSORGBACK
 10
0.0
 20
0.0
 30
0.0
  9
$PUCSBASE
  2

  9
$PUCSNAME
  2

  9
$PUCSORG
 10
0.0
 20
0.0
 30
0.0
  9
$PUCSXDIR
 10
1.0
 20
0.0
 30
0.0
  9
$PUCSYDIR
 10
0.0
 20
1.0
 30
0.0
  9
$PUCSORTHOREF
  2

  9
$PUCSORTHOVIEW
 70
0
  9
$PUCSORGTOP
 10
0.0
 20
0.0
 30
0.0
  9
$PUCSORGBOTTOM
 10
0.0
 20
0.0
 30
0.0
  9
$PUCSORGLEFT
 10
0.0
 20
0.0
 30
0.0
  9
$PUCSORGRIGHT
 10
0.0
 20
0.0
 30
0.0
  9
$PUCSORGFRONT
 10
0.0
 20
0.0
 30
0.0
  9
$PUCSORGBACK
 10
0.0
 20
0.0
 30
0.0
  9
$USERI1
 70
0
  9
$USERI2
 70
0
  9
$USERI3
 70
0
  9
$USERI4
 70
0
  9
$USERI5
 70
0
  9
$USERR1
 40
0.0
  9
$USERR2
 40
0.0
  9
$USERR3
 40
0.0
  9
$USERR4
 40
0.0
  9
$USERR5
 40
0.0
  9
$WORLDVIEW
 70
1
  9
$SHADEDGE
 70
3
  9
$SHADEDIF
 70
70
  9
$TILEMODE
 70
1
  9
$MAXACTVP
 70
64
  9
$PINSBASE
 10
0.0
 20
0.0
 30
0.0
  9
$PLIMCHECK
 70
0
  9
$PEXTMIN
 10
1e+20
 20
1e+20
 30
1e+20
  9
$PEXTMAX
 10
-1e+20
 20
-1e+20
 30
-1e+20
  9
$PLIMMIN
 10
0.0
 20
0.0
  9
$PLIMMAX
 10
420.0
 20
297.0
  9
$UNITMODE
 70
0
  9
$VISRETAIN
 70
1
  9
$PLINEGEN
 70
0
  9
$PSLTSCALE
 70
1
  9
$TREEDEPTH
 70
3020
  9
$CMLSTYLE
  2
Standard
  9
$CMLJUST
 70
0
  9
$CMLSCALE
 40
20.0
  9
$PROXYGRAPHICS
 70
1
  9
$MEASUREMENT
 70
1
  9
$CELWEIGHT
370
-1
  9
$ENDCAPS
280
0
  9
$JOINSTYLE
280
0
  9
$LWDISPLAY
290
0
  9
$INSUNITS
 70
6
  9
$HYPERLINKBASE
  1

  9
$STYLESHEET
  1

  9
$XEDIT
290
1
  9
$CEPSNTYPE
380
0
  9
$PSTYLEMODE
290
1
  9
$FINGERPRINTGUID
  2
{A883D644-166F-4E80-AC68-067A33C834FB}
  9
$VERSIONGUID
  2
{7C419F4B-30F0-41AE-97AE-019B759D3221}
  9
$EXTNAMES
290
1
  9
$PSVPSCALE
 40
0.0
  9
$OLESTARTUP
290
0
  9
$SORTENTS
280
127
  9
$INDEXCTL
280
0
  9
$HIDETEXT
280
1
  9
$XCLIPFRAME
280
1
  9
$HALOGAP
280
0
  9
$OBSCOLOR
 70
257
  9
$OBSLTYPE
280
0
  9
$INTERSECTIONDISPLAY
280
0
  9
$INTERSECTIONCOLOR
 70
257
  9
$DIMASSOC
280
2
  9
$PROJECTNAME
  1

  9
$CAMERADISPLAY
290
0
  9
$LENSLENGTH
 40
50.0
  9
$CAMERAHEIGHT
 40
0.0
  9
$STEPSPERSEC
 40
24.0
  9
$STEPSIZE
 40
100.0
  9
$3DDWFPREC
 40
2.0
  9
$PSOLWIDTH
 40
0.005
  9
$PSOLHEIGHT
 40
0.08
  9
$LOFTANG1
 40
1.570796326795
  9
$LOFTANG2
 40
1.570796326795
  9
$LOFTMAG1
 40
0.0
  9
$LOFTMAG2
 40
0.0
  9
$LOFTPARAM
 70
7
  9
$LOFTNORMALS
280
1
  9
$LATITUDE
 40
37.795
  9
$LONGITUDE
 40
-122.394
  9
$NORTHDIRECTION
 40
0.0
  9
$TIMEZONE
 70
-8000
  9
$LIGHTGLYPHDISPLAY
280
1
  9
$TILEMODELIGHTSYNCH
280
1
  9
$CMATERIAL
347
20
  9
$SOLIDHIST
280
0
  9
$SHOWHIST
280
1
  9
$DWFFRAME
280
2
  9
$DGNFRAME
280
2
  9
$REALWORLDSCALE
290
1
  9
$INTERFERECOLOR
 62
256
  9
$CSHADOW
280
0
  9
$SHADOWPLANELOCATION
 40
0.0
  0
ENDSEC
  0
SECTION
  2
CLASSES
  0
CLASS
  1
ACDBDICTIONARYWDFLT
  2
AcDbDictionaryWithDefault
  3
ObjectDBX Classes
 90
0
 91
0
280
0
281
0
  0
CLASS
  1
SUN
  2
AcDbSun
  3
SCENEOE
 90
1153
 91
0
280
0
281
0
  0
CLASS
  1
VISUALSTYLE
  2
AcDbVisualStyle
  3
ObjectDBX Classes
 90
4095
 91
0
280
0
281
0
  0
CLASS
  1
MATERIAL
  2
AcDbMaterial
  3
ObjectDBX Classes
 90
1153
 91
0
280
0
281
0
  0
CLASS
  1
SCALE
  2
AcDbScale
  3
ObjectDBX Classes
 90
1153
 91
0
280
0
281
0
  0
CLASS
  1
TABLESTYLE
  2
AcDbTableStyle
  3
ObjectDBX Classes
 90
4095
 91
0
280
0
281
0
  0
CLASS
  1
MLEADERSTYLE
  2
AcDbMLeaderStyle
  3
ACDB_MLEADERSTYLE_CLASS
 90
4095
 91
0
280
0
281
0
  0
CLASS
  1
DICTIONARYVAR
  2
AcDbDictionaryVar
  3
ObjectDBX Classes
 90
0
 91
0
280
0
281
0
  0
CLASS
  1
CELLSTYLEMAP
  2
AcDbCellStyleMap
  3
ObjectDBX Classes
 90
1152
 91
0
280
0
281
0
  0
CLASS
  1
MENTALRAYRENDERSETTINGS
  2
AcDbMentalRayRenderSettings
  3
SCENEOE
 90
1024
 91
0
280
0
281
0
  0
CLASS
  1
ACDBDETAILVIEWSTYLE
  2
AcDbDetailViewStyle
  3
ObjectDBX Classes
 90
1025
 91
0
280
0
281
0
  0
CLASS
  1
ACDBSECTIONVIEWSTYLE
  2
AcDbSectionViewStyle
  3
ObjectDBX Classes
 90
1025
 91
0
280
0
281
0
  0
CLASS
  1
RASTERVARIABLES
  2
AcDbRasterVariables
  3
ISM
 90
0
 91
0
280
0
281
0
  0
CLASS
  1
ACDBPLACEHOLDER
  2
AcDbPlaceHolder
  3
ObjectDBX Classes
 90
0
 91
0
280
0
281
0
  0
CLASS
  1
LAYOUT
  2
AcDbLayout
  3
ObjectDBX Classes
 90
0
 91
0
280
0
281
0
  0
ENDSEC
  0
SECTION
  2
TABLES
  0
TABLE
  2
VPORT
  5
8
330
0
100
AcDbSymbolTable
 70
1
  0
VPORT
  5
23
330
8
100
AcDbSymbolTableRecord
100
AcDbViewportTableRecord
  2
*Active
 70
0
 10
0.0
 20
0.0
 11
1.0
 21
1.0
 12
0.0
 22
0.0
 13
0.0
 23
0.0
 14
0.5
 24
0.5
 15
0.5
 25
0.5
 16
0.0
 26
0.0
 36
1.0
 17
0.0
 27
0.0
 37
0.0
 40
1000.0
 41
1.34
 42
50.0
 43
0.0
 44
0.0
 50
0.0
 51
0.0
 71
0
 72
1000
 73
1
 74
3
 75
0
 76
0
 77
0
 78
0
281
0
 65
0
146
0.0
  0
ENDTAB
  0
TABLE
  2
LTYPE
  5
2
330
0
100
AcDbSymbolTable
 70
3
  0
LTYPE
  5
24
330
2
100
AcDbSymbolTableRecord
100
AcDbLinetypeTableRecord
  2
ByBlock
 70
0
  3

 72
65
 73
0
 40
0.0
  0
LTYPE
  5
25
330
2
100
AcDbSymbolTableRecord
100
AcDbLinetypeTableRecord
  2
ByLayer
 70
0
  3

 72
65
 73
0
 40
0.0
  0
LTYPE
  5
26
330
2
100
AcDbSymbolTableRecord
100
AcDbLinetypeTableRecord
  2
Continuous
 70
0
  3

 72
65
 73
0
 40
0.0
  0
ENDTAB
  0
TABLE
  2
LAYER
  5
1
330
0
100
AcDbSymbolTable
 70
2
  0
LAYER
  5
27
330
1
100
AcDbSymbolTableRecord
100
AcDbLayerTableRecord
  2
0
 70
0
 62
7
  6
Continuous
370
-3
390
13
347
21
  0
LAYER
  5
28
330
1
100
AcDbSymbolTableRecord
100
AcDbLayerTableRecord
  2
Defpoints
 70
0
 62
7
  6
Continuous
290
0
370
-3
390
13
347
21
  0
ENDTAB
  0
TABLE
  2
STYLE
  5
5
330
0
100
AcDbSymbolTable
 70
1
  0
STYLE
  5
29
330
5
100
AcDbSymbolTableRecord
100
AcDbTextStyleTableRecord
  2
Standard
 70
0
 40
0.0
 41
1.0
 50
0.0
 71
0
 42
2.5
  3
txt
  4

  0
ENDTAB
  0
TABLE
  2
VIEW
  5
7
330
0
100
AcDbSymbolTable
 70
0
  0
ENDTAB
  0
TABLE
  2
UCS
  5
6
330
0
100
AcDbSymbolTable
 70
0
  0
ENDTAB
  0
TABLE
  2
APPID
  5
3
330
0
100
AcDbSymbolTable
 70
3
  0
APPID
  5
2A
330
3
100
AcDbSymbolTableRecord
100
AcDbRegAppTableRecord
  2
ACAD
 70
0
  0
APPID
  5
39
330
3
100
AcDbSymbolTableRecord
100
AcDbRegAppTableRecord
  2
HATCHBACKGROUNDCOLOR
 70
0
  0
APPID
  5
3A
330
3
100
AcDbSymbolTableRecord
100
AcDbRegAppTableRecord
  2
EZDXF
 70
0
  0
ENDTAB
  0
TABLE
  2
DIMSTYLE
  5
4
330
0
100
AcDbSymbolTable
 70
1
100
AcDbDimStyleTable
  0
DIMSTYLE
105
2B
330
4
100
AcDbSymbolTableRecord
100
AcDbDimStyleTableRecord
  2
Standard
 70
0
 40
1.0
 41
2.5
 42
0.625
 43
3.75
 44
1.25
 45
0.0
 46
0.0
 47
0.0
 48
0.0
 49
2.5
140
2.5
141
2.5
142
0.0
143
0.03937007874
144
1.0
145
0.0
146
1.0
147
0.625
148
0.0
 69
0
 70
0
 71
0
 72
0
 73
0
 74
0
 75
0
 76
0
 77
1
 78
8
 79
3
170
0
171
3
172
1
173
0
174
0
175
0
176
0
177
0
178
0
179
2
271
2
272
2
273
2
274
3
275
0
276
0
277
2
278
44
279
0
280
0
281
0
282
0
283
0
284
8
285
0
286
0
288
0
289
3
290
0
371
-2
372
-2
  0
ENDTAB
  0
TABLE
  2
BLOCK_RECORD
  5
9
330
0
100
AcDbSymbolTable
 70
2
  0
BLOCK_RECORD
  5
17
330
9
100
AcDbSymbolTableRecord
100
AcDbBlockTableRecord
  2
*Model_Space
340
1A
 70
0
280
1
281
0
  0
BLOCK_RECORD
  5
1B
330
9
100
AcDbSymbolTableRecord
100
AcDbBlockTableRecord
  2
*Paper_Space
340
1E
 70
0
280
1
281
0
  0
ENDTAB
  0
ENDSEC
  0
SECTION
  2
BLOCKS
  0
BLOCK
  5
18
330
17
100
AcDbEntity
  8
0
100
AcDbBlockBegin
  2
*Model_Space
 70
0
 10
0.0
 20
0.0
 30
0.0
  3
*Model_Space
  1

  0
ENDBLK
  5
19
330
17
100
AcDbEntity
  8
0
100
AcDbBlockEnd
  0
BLOCK
  5
1C
330
1B
100
AcDbEntity
  8
0
100
AcDbBlockBegin
  2
*Paper_Space
 70
0
 10
0.0
 20
0.0
 30
0.0
  3
*Paper_Space
  1

  0
ENDBLK
  5
1D
330
1B
100
AcDbEntity
  8
0
100
AcDbBlockEnd
  0
ENDSEC
  0
SECTION
  2
ENTITIES
  0
LWPOLYLINE
  5
2F
330
17
100
AcDbEntity
  8
0
100
AcDbPolyline
 90
190
 70
0
 10
39.04079000784307
 20
23.170550167256458
 10
38.93498840890583
 20
23.276351766193702
 10
38.511782013156854
 20
23.276351766193702
 10
38.405980414219606
 20
23.382153365130947
 10
38.19437721634512
 20
23.382153365130947
 10
38.08857561740788
 20
23.48795496406819
 10
37.87697241953339
 20
23.48795496406819
 10
37.77117082059614
 20
23.59375656300543
 10
37.6653692216589
 20
23.59375656300543
 10
37.45376602378441
 20
23.80535976087992
 10
37.34796442484716
 20
23.80535976087992
 10
37.24216282590992
 20
23.911161359817164
 10
37.136361226972674
 20
23.911161359817164
 10
36.713154831223704
 20
24.33436775556614
 10
36.60735323228646
 20
24.33436775556614
 10
36.07834523760024
 20
24.863375750252363
 10
36.07834523760024
 20
24.969177349189607
 10
35.65513884185126
 20
25.392383744938584
 10
35.65513884185126
 20
25.49818534387583
 10
35.44353564397677
 20
25.709788541750314
 10
35.44353564397677
 20
25.815590140687558
 10
35.337734045039525
 20
25.921391739624802
 10
35.337734045039525
 20
26.027193338562046
 10
35.12613084716504
 20
26.238796536436535
 10
35.12613084716504
 20
26.450399734311024
 10
35.020329248227796
 20
26.556201333248268
 10
35.020329248227796
 20
26.662002932185512
 10
34.91452764929055
 20
26.767804531122756
 10
34.91452764929055
 20
26.979407728997245
 10
34.80872605035331
 20
27.08520932793449
 10
34.80872605035331
 20
27.296812525808978
 10
34.70292445141607
 20
27.402614124746222
 10
34.70292445141607
 20
27.61421732262071
 10
34.59712285247882
 20
27.72001892155795
 10
34.59712285247882
 20
28.037423718369684
 10
34.49132125354158
 20
28.14322531730693
 10
34.49132125354158
 20
28.566431713055906
 10
34.38551965460433
 20
28.67223331199315
 10
34.38551965460433
 20
31.317273285424253
 10
34.49132125354158
 20
31.423074884361498
 10
34.49132125354158
 20
32.163686076922204
 10
34.59712285247882
 20
32.26948767585945
 10
34.59712285247882
 20
32.48109087373394
 10
34.70292445141607
 20
32.58689247267118
 10
34.70292445141607
 20
32.90429726948291
 10
34.80872605035331
 20
33.01009886842016
 10
34.80872605035331
 20
33.1159004673574
 10
34.91452764929055
 20
33.22170206629465
 10
34.91452764929055
 20
33.433305264169135
 10
35.020329248227796
 20
33.539106863106376
 10
35.020329248227796
 20
33.644908462043624
 10
35.12613084716504
 20
33.750710060980865
 10
35.12613084716504
 20
33.85651165991811
 10
35.231932446102284
 20
33.96231325885535
 10
35.231932446102284
 20
34.17391645672984
 10
35.337734045039525
 20
34.27971805566709
 10
35.337734045039525
 20
34.38551965460433
 10
35.549337242914014
 20
34.59712285247882
 10
35.549337242914014
 20
34.70292445141607
 10
35.65513884185126
 20
34.80872605035331
 10
35.65513884185126
 20
34.91452764929055
 10
35.97254363866299
 20
35.231932446102284
 10
35.97254363866299
 20
35.337734045039525
 10
36.18414683653748
 20
35.549337242914014
 10
36.18414683653748
 20
35.65513884185126
 10
36.924758029098186
 20
36.39575003441197
 10
37.030559628035434
 20
36.39575003441197
 10
37.24216282590992
 20
36.60735323228646
 10
37.34796442484716
 20
36.60735323228646
 10
37.6653692216589
 20
36.924758029098186
 10
37.77117082059614
 20
36.924758029098186
 10
38.08857561740788
 20
37.24216282590992
 10
38.19437721634512
 20
37.24216282590992
 10
38.405980414219606
 20
37.45376602378441
 10
38.511782013156854
 20
37.45376602378441
 10
38.617583612094094
 20
37.55956762272165
 10
38.72338521103134
 20
37.55956762272165
 10
38.82918680996858
 20
37.6653692216589
 10
38.93498840890583
 20
37.6653692216589
 10
39.04079000784307
 20
37.77117082059614
 10
39.14659160678031
 20
37.77117082059614
 10
39.25239320571756
 20
37.87697241953339
 10
39.46399640359205
 20
37.87697241953339
 10
39.56979800252929
 20
37.98277401847063
 10
39.78140120040378
 20
37.98277401847063
 10
39.887202799341026
 20
38.08857561740788
 10
40.098805997215514
 20
38.08857561740788
 10
40.204607596152755
 20
38.19437721634512
 10
40.41621079402724
 20
38.19437721634512
 10
40.52201239296449
 20
38.300178815282365
 10
41.05102038765071
 20
38.300178815282365
 10
41.15682198658795
 20
38.405980414219606
 10
42.003234778085904
 20
38.405980414219606
 10
42.10903637702315
 20
38.511782013156854
 10
44.859877949391496
 20
38.511782013156854
 10
44.965679548328744
 20
38.405980414219606
 10
45.28308434514047
 20
38.405980414219606
 10
45.388885944077714
 20
38.300178815282365
 10
45.6004891419522
 20
38.300178815282365
 10
45.70629074088945
 20
38.19437721634512
 10
45.91789393876394
 20
38.19437721634512
 10
46.02369553770118
 20
38.08857561740788
 10
46.23529873557567
 20
38.08857561740788
 10
46.44690193345016
 20
37.87697241953339
 10
46.552703532387405
 20
37.87697241953339
 10
46.658505131324645
 20
37.77117082059614
 10
46.658505131324645
 20
37.6653692216589
 10
46.870108329199134
 20
37.45376602378441
 10
46.870108329199134
 20
37.34796442484716
 10
46.97590992813638
 20
37.24216282590992
 10
46.97590992813638
 20
37.030559628035434
 10
47.08171152707362
 20
36.924758029098186
 10
47.08171152707362
 20
36.818956430160945
 10
47.29331472494811
 20
36.60735323228646
 10
47.29331472494811
 20
36.501551633349216
 10
47.39911632388535
 20
36.39575003441197
 10
47.39911632388535
 20
36.28994843547473
 10
48.03392591750882
 20
35.65513884185126
 10
48.139727516446065
 20
35.65513884185126
 10
48.457132313257794
 20
35.337734045039525
 10
48.457132313257794
 20
34.27971805566709
 10
48.56293391219504
 20
34.17391645672984
 10
48.56293391219504
 20
33.750710060980865
 10
48.66873551113228
 20
33.644908462043624
 10
48.66873551113228
 20
32.90429726948291
 10
48.77453711006953
 20
32.79849567054567
 10
48.77453711006953
 20
31.21147168648701
 10
48.66873551113228
 20
31.105670087549765
 10
48.66873551113228
 20
30.682463691800788
 10
48.56293391219504
 20
30.576662092863543
 10
48.56293391219504
 20
30.25925729605181
 10
48.457132313257794
 20
30.153455697114566
 10
48.457132313257794
 20
30.047654098177322
 10
48.351330714320554
 20
29.941852499240078
 10
48.351330714320554
 20
29.730249301365593
 10
48.245529115383306
 20
29.62444770242835
 10
48.245529115383306
 20
29.518646103491104
 10
48.139727516446065
 20
29.41284450455386
 10
48.139727516446065
 20
29.307042905616616
 10
48.03392591750882
 20
29.20124130667937
 10
48.03392591750882
 20
28.989638108804883
 10
47.92812431857158
 20
28.88383650986764
 10
47.92812431857158
 20
28.778034910930394
 10
47.82232271963433
 20
28.67223331199315
 10
47.82232271963433
 20
28.46063011411866
 10
47.71652112069709
 20
28.354828515181417
 10
47.71652112069709
 20
28.14322531730693
 10
47.61071952175984
 20
28.037423718369684
 10
47.61071952175984
 20
27.825820520495196
 10
47.5049179228226
 20
27.72001892155795
 10
47.5049179228226
 20
27.61421732262071
 10
47.39911632388535
 20
27.508415723683466
 10
47.39911632388535
 20
27.402614124746222
 10
47.18751312601086
 20
27.191010926871733
 10
47.18751312601086
 20
27.08520932793449
 10
46.658505131324645
 20
26.556201333248268
 10
46.658505131324645
 20
26.450399734311024
 10
46.341100334512916
 20
26.13299493749929
 10
46.23529873557567
 20
26.13299493749929
 10
45.81209233982669
 20
25.709788541750314
 10
45.70629074088945
 20
25.709788541750314
 10
44.754076350454255
 20
24.75757415131512
 10
44.64827475151701
 20
24.75757415131512
 10
44.43667155364252
 20
24.54597095344063
 10
44.33086995470528
 20
24.54597095344063
 10
44.22506835576803
 20
24.440169354503386
 10
44.11926675683079
 20
24.440169354503386
 10
44.01346515789354
 20
24.33436775556614
 10
43.9076635589563
 20
24.33436775556614
 10
43.80186196001905
 20
24.228566156628897
 10
43.69606036108181
 20
24.228566156628897
 10
43.590258762144565
 20
24.122764557691653
 10
43.484457163207324
 20
24.122764557691653
 10
43.378655564270076
 20
24.01696295875441
 10
43.16705236639559
 20
24.01696295875441
 10
43.06125076745835
 20
23.911161359817164
 10
42.84964756958386
 20
23.911161359817164
 10
42.74384597064662
 20
23.80535976087992
 10
42.53224277277213
 20
23.80535976087992
 10
42.42644117383488
 20
23.699558161942676
 10
42.10903637702315
 20
23.699558161942676
 10
42.003234778085904
 20
23.59375656300543
 10
41.791631580211416
 20
23.59375656300543
 10
41.685829981274175
 20
23.48795496406819
 10
41.36842518446244
 20
23.48795496406819
 10
41.2626235855252
 20
23.382153365130947
 10
40.73361559083898
 20
23.382153365130947
 10
40.62781399190173
 20
23.276351766193702
 10
39.887202799341026
 20
23.276351766193702
 10
39.78140120040378
 20
23.170550167256458
  0
LWPOLYLINE
  5
30
330
17
100
AcDbEntity
  8
0
100
AcDbPolyline
 90
41
 70
0
 10
24.863375750252363
 20
9.945350300100944
 10
24.75757415131512
 20
10.051151899038189
 10
24.651772552377874
 20
10.051151899038189
 10
24.54597095344063
 20
10.156953497975433
 10
24.54597095344063
 20
10.262755096912677
 10
24.440169354503386
 20
10.368556695849922
 10
24.440169354503386
 20
10.685961492661654
 10
24.54597095344063
 20
10.791763091598897
 10
24.54597095344063
 20
11.003366289473385
 10
24.651772552377874
 20
11.10916788841063
 10
24.651772552377874
 20
11.214969487347874
 10
24.863375750252363
 20
11.426572685222363
 10
24.969177349189607
 20
11.426572685222363
 10
25.07497894812685
 20
11.532374284159607
 10
25.180780547064096
 20
11.532374284159607
 10
25.28658214600134
 20
11.638175883096851
 10
25.49818534387583
 20
11.638175883096851
 10
25.709788541750314
 20
11.849779080971338
 10
25.815590140687558
 20
11.849779080971338
 10
25.921391739624802
 20
11.955580679908582
 10
26.027193338562046
 20
11.955580679908582
 10
26.13299493749929
 20
12.061382278845826
 10
26.34459813537378
 20
12.061382278845826
 10
26.450399734311024
 20
12.16718387778307
 10
26.556201333248268
 20
12.061382278845826
 10
26.767804531122756
 20
12.061382278845826
 10
26.87360613006
 20
11.955580679908582
 10
26.979407728997245
 20
11.955580679908582
 10
27.296812525808978
 20
11.638175883096851
 10
27.296812525808978
 20
11.532374284159607
 10
27.402614124746222
 20
11.426572685222363
 10
27.402614124746222
 20
11.003366289473385
 10
26.979407728997245
 20
10.58015989372441
 10
26.87360613006
 20
10.58015989372441
 10
26.767804531122756
 20
10.474358294787166
 10
26.662002932185512
 20
10.474358294787166
 10
26.34459813537378
 20
10.156953497975433
 10
26.238796536436535
 20
10.156953497975433
 10
26.13299493749929
 20
10.051151899038189
 10
25.49818534387583
 20
10.051151899038189
 10
25.392383744938584
 20
9.945350300100944
  0
LWPOLYLINE
  5
31
330
17
100
AcDbEntity
  8
0
100
AcDbPolyline
 90
13
 70
0
 10
26.34459813537378
 20
8.675731112854017
 10
26.13299493749929
 20
8.887334310728503
 10
26.13299493749929
 20
9.627945503289213
 10
26.238796536436535
 20
9.627945503289213
 10
26.34459813537378
 20
9.733747102226458
 10
26.450399734311024
 20
9.733747102226458
 10
26.556201333248268
 20
9.627945503289213
 10
26.662002932185512
 20
9.627945503289213
 10
26.767804531122756
 20
9.52214390435197
 10
26.767804531122756
 20
9.416342305414725
 10
26.87360613006
 20
9.31054070647748
 10
26.87360613006
 20
8.993135909665748
 10
26.556201333248268
 20
8.675731112854017
  0
LWPOLYLINE
  5
32
330
17
100
AcDbEntity
  8
0
100
AcDbPolyline
 90
7
 70
0
 10
26.662002932185512
 20
2.5392383744938583
 10
26.662002932185512
 20
2.6450399734311025
 10
26.556201333248268
 20
2.7508415723683464
 10
26.556201333248268
 20
2.8566431713055906
 10
26.767804531122756
 20
2.8566431713055906
 10
26.767804531122756
 20
2.7508415723683464
 10
26.662002932185512
 20
2.6450399734311025
  0
LWPOLYLINE
  5
33
330
17
100
AcDbEntity
  8
0
100
AcDbPolyline
 90
336
 70
0
 10
0.0
 20
0.0
 10
0.0
 20
1.058015989372441
 10
1.2696191872469291
 20
1.058015989372441
 10
1.3754207861841732
 20
1.163817588309685
 10
2.9624447702428345
 20
1.163817588309685
 10
3.0682463691800788
 20
1.2696191872469291
 10
4.0204607596152755
 20
1.2696191872469291
 10
4.12626235855252
 20
1.163817588309685
 10
4.337865556427008
 20
1.163817588309685
 10
4.443667155364252
 20
1.058015989372441
 10
9.31054070647748
 20
1.058015989372441
 10
9.416342305414725
 20
1.163817588309685
 10
10.58015989372441
 20
1.163817588309685
 10
10.685961492661654
 20
1.2696191872469291
 10
12.590390273532048
 20
1.2696191872469291
 10
12.696191872469292
 20
1.163817588309685
 10
13.119398268218267
 20
1.163817588309685
 10
13.225199867155512
 20
1.2696191872469291
 10
13.542604663967245
 20
1.2696191872469291
 10
13.648406262904489
 20
1.3754207861841732
 10
14.071612658653464
 20
1.3754207861841732
 10
14.177414257590709
 20
1.4812223851214172
 10
15.129628648025905
 20
1.4812223851214172
 10
15.23543024696315
 20
1.3754207861841732
 10
15.976041439523858
 20
1.3754207861841732
 10
16.081843038461102
 20
1.4812223851214172
 10
17.986271819331495
 20
1.4812223851214172
 10
18.09207341826874
 20
1.3754207861841732
 10
22.00673257894677
 20
1.3754207861841732
 10
22.112534177884015
 20
1.4812223851214172
 10
23.170550167256458
 20
1.4812223851214172
 10
23.276351766193702
 20
1.3754207861841732
 10
25.392383744938584
 20
1.3754207861841732
 10
25.49818534387583
 20
1.4812223851214172
 10
25.709788541750314
 20
1.4812223851214172
 10
25.815590140687558
 20
1.5870239840586615
 10
25.921391739624802
 20
1.5870239840586615
 10
26.027193338562046
 20
1.6928255829959056
 10
26.13299493749929
 20
1.6928255829959056
 10
26.238796536436535
 20
1.7986271819331496
 10
26.34459813537378
 20
1.7986271819331496
 10
26.450399734311024
 20
1.9044287808703937
 10
26.979407728997245
 20
1.9044287808703937
 10
27.08520932793449
 20
1.7986271819331496
 10
27.61421732262071
 20
1.7986271819331496
 10
27.72001892155795
 20
1.6928255829959056
 10
28.354828515181417
 20
1.6928255829959056
 10
28.46063011411866
 20
1.7986271819331496
 10
28.989638108804883
 20
1.7986271819331496
 10
29.095439707742127
 20
1.9044287808703937
 10
30.894066889675276
 20
1.9044287808703937
 10
30.99986848861252
 20
2.0102303798076377
 10
35.97254363866299
 20
2.0102303798076377
 10
36.07834523760024
 20
1.9044287808703937
 10
37.24216282590992
 20
1.9044287808703937
 10
37.34796442484716
 20
2.0102303798076377
 10
39.04079000784307
 20
2.0102303798076377
 10
39.14659160678031
 20
1.9044287808703937
 10
41.05102038765071
 20
1.9044287808703937
 10
41.15682198658795
 20
2.0102303798076377
 10
43.80186196001905
 20
2.0102303798076377
 10
43.9076635589563
 20
1.9044287808703937
 10
45.6004891419522
 20
1.9044287808703937
 10
45.70629074088945
 20
2.0102303798076377
 10
49.51514830263024
 20
2.0102303798076377
 10
49.62094990156748
 20
1.9044287808703937
 10
55.01683144736693
 20
1.9044287808703937
 10
55.12263304630417
 20
1.7986271819331496
 10
56.28645063461386
 20
1.7986271819331496
 10
56.392252233551105
 20
1.9044287808703937
 10
61.682332180413304
 20
1.9044287808703937
 10
61.78813377935055
 20
1.7986271819331496
 10
62.10553857616228
 20
1.7986271819331496
 10
62.21134017509953
 20
1.9044287808703937
 10
65.91439613790307
 20
1.9044287808703937
 10
66.02019773684032
 20
1.7986271819331496
 10
72.68569846988669
 20
1.7986271819331496
 10
72.79150006882394
 20
1.6928255829959056
 10
74.27272245394535
 20
1.6928255829959056
 10
74.3785240528826
 20
1.7986271819331496
 10
74.59012725075709
 20
1.7986271819331496
 10
74.69592884969433
 20
1.6928255829959056
 10
75.64814324012953
 20
1.6928255829959056
 10
75.75394483906678
 20
1.5870239840586615
 10
76.49455603162748
 20
1.5870239840586615
 10
76.60035763056473
 20
1.4812223851214172
 10
77.55257202099992
 20
1.4812223851214172
 10
77.65837361993717
 20
1.5870239840586615
 10
77.76417521887441
 20
1.5870239840586615
 10
77.86997681781166
 20
1.6928255829959056
 10
77.9757784167489
 20
1.6928255829959056
 10
78.39898481249787
 20
2.116031978744882
 10
78.39898481249787
 20
2.6450399734311025
 10
78.29318321356062
 20
2.7508415723683464
 10
78.29318321356062
 20
2.8566431713055906
 10
77.86997681781166
 20
3.279849567054567
 10
77.86997681781166
 20
3.385651165991811
 10
77.76417521887441
 20
3.491452764929055
 10
77.76417521887441
 20
3.5972543638662993
 10
77.65837361993717
 20
3.7030559628035435
 10
77.65837361993717
 20
4.0204607596152755
 10
77.55257202099992
 20
4.12626235855252
 10
77.55257202099992
 20
4.761071952175985
 10
77.44677042206268
 20
4.866873551113229
 10
77.44677042206268
 20
6.030691139422913
 10
77.55257202099992
 20
6.1364927383601575
 10
77.55257202099992
 20
7.300310326669843
 10
77.65837361993717
 20
7.406111925607087
 10
77.65837361993717
 20
8.146723118167795
 10
77.76417521887441
 20
8.25252471710504
 10
77.76417521887441
 20
9.627945503289213
 10
77.65837361993717
 20
9.733747102226458
 10
77.65837361993717
 20
11.849779080971338
 10
77.55257202099992
 20
11.955580679908582
 10
77.55257202099992
 20
13.43680306503
 10
77.65837361993717
 20
13.542604663967245
 10
77.65837361993717
 20
16.081843038461102
 10
77.76417521887441
 20
16.187644637398346
 10
77.76417521887441
 20
21.900930980009527
 10
77.86997681781166
 20
22.00673257894677
 10
77.86997681781166
 20
23.276351766193702
 10
77.76417521887441
 20
23.382153365130947
 10
77.76417521887441
 20
24.651772552377874
 10
77.86997681781166
 20
24.75757415131512
 10
77.86997681781166
 20
26.450399734311024
 10
77.76417521887441
 20
26.556201333248268
 10
77.76417521887441
 20
27.61421732262071
 10
77.86997681781166
 20
27.72001892155795
 10
77.86997681781166
 20
31.84628128011047
 10
77.9757784167489
 20
31.952082879047715
 10
77.9757784167489
 20
36.39575003441197
 10
78.08158001568614
 20
36.501551633349216
 10
78.08158001568614
 20
37.136361226972674
 10
78.18738161462339
 20
37.24216282590992
 10
78.18738161462339
 20
39.887202799341026
 10
78.29318321356062
 20
39.993004398278266
 10
78.29318321356062
 20
41.89743317914866
 10
78.39898481249787
 20
42.003234778085904
 10
78.39898481249787
 20
42.42644117383488
 10
78.50478641143512
 20
42.53224277277213
 10
78.50478641143512
 20
43.272853965332835
 10
78.61058801037237
 20
43.378655564270076
 10
78.61058801037237
 20
44.43667155364252
 10
78.7163896093096
 20
44.54247315257977
 10
78.7163896093096
 20
45.071481147265985
 10
78.82219120824685
 20
45.177282746203225
 10
78.82219120824685
 20
45.28308434514047
 10
78.9279928071841
 20
45.388885944077714
 10
78.9279928071841
 20
45.49468754301496
 10
79.03379440612134
 20
45.6004891419522
 10
79.03379440612134
 20
45.70629074088945
 10
79.13959600505858
 20
45.81209233982669
 10
79.13959600505858
 20
45.91789393876394
 10
79.24539760399583
 20
46.02369553770118
 10
79.24539760399583
 20
46.23529873557567
 10
79.35119920293307
 20
46.341100334512916
 10
79.35119920293307
 20
46.870108329199134
 10
79.45700080187032
 20
46.97590992813638
 10
79.45700080187032
 20
47.08171152707362
 10
79.56280240080756
 20
47.08171152707362
 10
79.6686039997448
 20
47.18751312601086
 10
79.98600879655653
 20
47.18751312601086
 10
80.09181039549378
 20
47.29331472494811
 10
80.51501679124276
 20
47.29331472494811
 10
80.62081839018
 20
47.39911632388535
 10
80.72661998911724
 20
47.39911632388535
 10
80.83242158805449
 20
47.5049179228226
 10
80.93822318699173
 20
47.5049179228226
 10
81.78463597848969
 20
48.351330714320554
 10
81.89043757742694
 20
48.351330714320554
 10
82.10204077530142
 20
48.56293391219504
 10
82.20784237423867
 20
48.56293391219504
 10
82.3136439731759
 20
48.66873551113228
 10
82.5252471710504
 20
48.66873551113228
 10
82.63104876998764
 20
48.77453711006953
 10
82.73685036892488
 20
48.77453711006953
 10
82.84265196786212
 20
48.88033870900677
 10
82.94845356679937
 20
48.88033870900677
 10
83.05425516573662
 20
48.98614030794402
 10
83.2658583636111
 20
48.98614030794402
 10
83.37165996254835
 20
49.09194190688126
 10
83.58326316042283
 20
49.09194190688126
 10
83.68906475936008
 20
49.19774350581851
 10
83.90066795723457
 20
49.19774350581851
 10
84.00646955617181
 20
49.30354510475575
 10
84.32387435298354
 20
49.30354510475575
 10
84.42967595192079
 20
49.40934670369299
 10
84.95868394660701
 20
49.40934670369299
 10
85.06448554554426
 20
49.51514830263024
 10
85.38189034235599
 20
49.51514830263024
 10
85.48769194129324
 20
49.62094990156748
 10
85.69929513916772
 20
49.62094990156748
 10
85.80509673810496
 20
49.726751500504726
 10
85.91089833704221
 20
49.726751500504726
 10
86.1225015349167
 20
49.938354698379214
 10
86.22830313385394
 20
49.938354698379214
 10
86.43990633172842
 20
50.1499578962537
 10
86.43990633172842
 20
50.255759495190944
 10
86.65150952960292
 20
50.46736269306543
 10
86.65150952960292
 20
51.631180281375116
 10
86.54570793066567
 20
51.736981880312364
 10
86.54570793066567
 20
52.26598987499858
 10
86.43990633172842
 20
52.37179147393583
 10
86.43990633172842
 20
52.68919627074756
 10
86.33410473279118
 20
52.794997869684806
 10
86.33410473279118
 20
52.90079946862205
 10
85.69929513916772
 20
53.53560906224551
 10
85.48769194129324
 20
53.53560906224551
 10
85.38189034235599
 20
53.64141066118275
 10
85.17028714448149
 20
53.64141066118275
 10
85.06448554554426
 20
53.74721226012
 10
84.64127914979528
 20
53.74721226012
 10
84.53547755085803
 20
53.85301385905724
 10
83.90066795723457
 20
53.85301385905724
 10
83.79486635829733
 20
53.95881545799449
 10
83.05425516573662
 20
53.95881545799449
 10
82.94845356679937
 20
54.06461705693173
 10
79.03379440612134
 20
54.06461705693173
 10
78.9279928071841
 20
54.17041865586898
 10
78.82219120824685
 20
54.17041865586898
 10
78.50478641143512
 20
54.48782345268071
 10
78.50478641143512
 20
54.593625051617956
 10
78.39898481249787
 20
54.699426650555196
 10
78.39898481249787
 20
55.12263304630417
 10
78.29318321356062
 20
55.22843464524142
 10
78.29318321356062
 20
56.392252233551105
 10
78.39898481249787
 20
56.498053832488345
 10
78.39898481249787
 20
56.709657030362834
 10
78.50478641143512
 20
56.81545862930008
 10
78.50478641143512
 20
56.92126022823732
 10
78.61058801037237
 20
57.02706182717457
 10
78.61058801037237
 20
57.13286342611181
 10
79.03379440612134
 20
57.55606982186079
 10
79.03379440612134
 20
57.66187142079803
 10
79.24539760399583
 20
57.87347461867252
 10
79.24539760399583
 20
58.085077816547006
 10
79.35119920293307
 20
58.190879415484254
 10
79.35119920293307
 20
59.14309380591945
 10
79.13959600505858
 20
59.35469700379394
 10
79.03379440612134
 20
59.35469700379394
 10
78.82219120824685
 20
59.566300201668426
 10
78.7163896093096
 20
59.566300201668426
 10
78.7163896093096
 20
59.67210180060567
 10
78.61058801037237
 20
59.777903399542915
 10
78.61058801037237
 20
59.883704998480155
 10
78.50478641143512
 20
59.9895065974174
 10
78.50478641143512
 20
60.20110979529189
 10
78.39898481249787
 20
60.30691139422913
 10
78.39898481249787
 20
60.51851459210362
 10
78.29318321356062
 20
60.62431619104087
 10
78.29318321356062
 20
60.9417209878526
 10
78.18738161462339
 20
61.047522586789846
 10
78.18738161462339
 20
61.15332418572709
 10
77.65837361993717
 20
61.682332180413304
 10
77.55257202099992
 20
61.682332180413304
 10
77.44677042206268
 20
61.78813377935055
 10
77.23516722418819
 20
61.78813377935055
 10
77.12936562525094
 20
61.89393537828779
 10
67.28981692408725
 20
61.89393537828779
 10
67.18401532515
 20
61.99973697722504
 10
66.4434041325893
 20
61.99973697722504
 10
66.33760253365205
 20
62.10553857616228
 10
64.85638014853063
 20
62.10553857616228
 10
64.75057854959338
 20
61.99973697722504
 10
62.951951367660236
 20
61.99973697722504
 10
62.846149768722995
 20
62.10553857616228
 10
62.42294337297402
 20
62.10553857616228
 10
62.31714177403677
 20
62.21134017509953
 10
61.99973697722504
 20
62.21134017509953
 10
61.89393537828779
 20
62.31714177403677
 10
61.364927383601575
 20
62.31714177403677
 10
61.259125784664334
 20
62.21134017509953
 10
60.83591938891536
 20
62.21134017509953
 10
60.73011778997811
 20
62.10553857616228
 10
59.67210180060567
 20
62.10553857616228
 10
59.566300201668426
 20
62.21134017509953
 10
59.14309380591945
 20
62.21134017509953
 10
59.03729220698221
 20
62.31714177403677
 10
58.71988741017047
 20
62.31714177403677
 10
58.61408581123323
 20
62.42294337297402
 10
58.085077816547006
 20
62.42294337297402
 10
57.979276217609765
 20
62.31714177403677
 10
57.76767301973528
 20
62.31714177403677
 10
57.66187142079803
 20
62.21134017509953
 10
57.45026822292354
 20
62.21134017509953
 10
57.3444666239863
 20
62.10553857616228
 10
56.92126022823732
 20
62.10553857616228
 10
56.81545862930008
 20
61.99973697722504
 10
55.54583944205315
 20
61.99973697722504
 10
55.4400378431159
 20
62.10553857616228
 10
54.805228249492444
 20
62.10553857616228
 10
54.699426650555196
 20
62.21134017509953
 10
53.95881545799449
 20
62.21134017509953
 10
53.85301385905724
 20
62.10553857616228
 10
53.53560906224551
 20
62.10553857616228
 10
53.429807463308265
 20
61.99973697722504
 10
50.255759495190944
 20
61.99973697722504
 10
50.1499578962537
 20
62.10553857616228
 10
47.92812431857158
 20
62.10553857616228
 10
47.82232271963433
 20
61.99973697722504
 10
47.39911632388535
 20
61.99973697722504
 10
47.29331472494811
 20
62.10553857616228
 10
46.44690193345016
 20
62.10553857616228
 10
46.341100334512916
 20
62.21134017509953
 10
45.70629074088945
 20
62.21134017509953
 10
45.6004891419522
 20
62.10553857616228
 10
44.22506835576803
 20
62.10553857616228
 10
44.11926675683079
 20
62.21134017509953
 10
42.003234778085904
 20
62.21134017509953
 10
41.89743317914866
 20
62.31714177403677
 10
41.36842518446244
 20
62.31714177403677
 10
41.2626235855252
 20
62.42294337297402
 10
40.62781399190173
 20
62.42294337297402
 10
40.52201239296449
 20
62.52874497191126
 10
40.098805997215514
 20
62.52874497191126
 10
39.993004398278266
 20
62.42294337297402
 10
39.14659160678031
 20
62.42294337297402
 10
39.04079000784307
 20
62.31714177403677
 10
38.08857561740788
 20
62.31714177403677
 10
37.98277401847063
 20
62.42294337297402
 10
37.45376602378441
 20
62.42294337297402
 10
37.34796442484716
 20
62.52874497191126
 10
36.713154831223704
 20
62.52874497191126
 10
36.60735323228646
 20
62.63454657084851
 10
36.501551633349216
 20
62.63454657084851
 10
36.39575003441197
 20
62.52874497191126
 10
35.549337242914014
 20
62.52874497191126
 10
35.44353564397677
 20
62.42294337297402
 10
33.539106863106376
 20
62.42294337297402
 10
33.433305264169135
 20
62.52874497191126
 10
33.1159004673574
 20
62.52874497191126
 10
33.01009886842016
 20
62.63454657084851
 10
32.90429726948291
 20
62.63454657084851
 10
32.90429726948291
 20
62.74034816978575
 10
88.23853351366158
 20
62.74034816978575
 10
88.23853351366158
 20
0.0
  0
LWPOLYLINE
  5
34
330
17
100
AcDbEntity
  8
0
100
AcDbPolyline
 90
190
 70
0
 10
39.04079000784307
 20
23.170550167256458
 10
38.93498840890583
 20
23.276351766193702
 10
38.511782013156854
 20
23.276351766193702
 10
38.405980414219606
 20
23.382153365130947
 10
38.19437721634512
 20
23.382153365130947
 10
38.08857561740788
 20
23.48795496406819
 10
37.87697241953339
 20
23.48795496406819
 10
37.77117082059614
 20
23.59375656300543
 10
37.6653692216589
 20
23.59375656300543
 10
37.45376602378441
 20
23.80535976087992
 10
37.34796442484716
 20
23.80535976087992
 10
37.24216282590992
 20
23.911161359817164
 10
37.136361226972674
 20
23.911161359817164
 10
36.713154831223704
 20
24.33436775556614
 10
36.60735323228646
 20
24.33436775556614
 10
36.07834523760024
 20
24.863375750252363
 10
36.07834523760024
 20
24.969177349189607
 10
35.65513884185126
 20
25.392383744938584
 10
35.65513884185126
 20
25.49818534387583
 10
35.44353564397677
 20
25.709788541750314
 10
35.44353564397677
 20
25.815590140687558
 10
35.337734045039525
 20
25.921391739624802
 10
35.337734045039525
 20
26.027193338562046
 10
35.12613084716504
 20
26.238796536436535
 10
35.12613084716504
 20
26.450399734311024
 10
35.020329248227796
 20
26.556201333248268
 10
35.020329248227796
 20
26.662002932185512
 10
34.91452764929055
 20
26.767804531122756
 10
34.91452764929055
 20
26.979407728997245
 10
34.80872605035331
 20
27.08520932793449
 10
34.80872605035331
 20
27.296812525808978
 10
34.70292445141607
 20
27.402614124746222
 10
34.70292445141607
 20
27.61421732262071
 10
34.59712285247882
 20
27.72001892155795
 10
34.59712285247882
 20
28.037423718369684
 10
34.49132125354158
 20
28.14322531730693
 10
34.49132125354158
 20
28.566431713055906
 10
34.38551965460433
 20
28.67223331199315
 10
34.38551965460433
 20
31.317273285424253
 10
34.49132125354158
 20
31.423074884361498
 10
34.49132125354158
 20
32.163686076922204
 10
34.59712285247882
 20
32.26948767585945
 10
34.59712285247882
 20
32.48109087373394
 10
34.70292445141607
 20
32.58689247267118
 10
34.70292445141607
 20
32.90429726948291
 10
34.80872605035331
 20
33.01009886842016
 10
34.80872605035331
 20
33.1159004673574
 10
34.91452764929055
 20
33.22170206629465
 10
34.91452764929055
 20
33.433305264169135
 10
35.020329248227796
 20
33.539106863106376
 10
35.020329248227796
 20
33.644908462043624
 10
35.12613084716504
 20
33.750710060980865
 10
35.12613084716504
 20
33.85651165991811
 10
35.231932446102284
 20
33.96231325885535
 10
35.231932446102284
 20
34.17391645672984
 10
35.337734045039525
 20
34.27971805566709
 10
35.337734045039525
 20
34.38551965460433
 10
35.549337242914014
 20
34.59712285247882
 10
35.549337242914014
 20
34.70292445141607
 10
35.65513884185126
 20
34.80872605035331
 10
35.65513884185126
 20
34.91452764929055
 10
35.97254363866299
 20
35.231932446102284
 10
35.97254363866299
 20
35.337734045039525
 10
36.18414683653748
 20
35.549337242914014
 10
36.18414683653748
 20
35.65513884185126
 10
36.924758029098186
 20
36.39575003441197
 10
37.030559628035434
 20
36.39575003441197
 10
37.24216282590992
 20
36.60735323228646
 10
37.34796442484716
 20
36.60735323228646
 10
37.6653692216589
 20
36.924758029098186
 10
37.77117082059614
 20
36.924758029098186
 10
38.08857561740788
 20
37.24216282590992
 10
38.19437721634512
 20
37.24216282590992
 10
38.405980414219606
 20
37.45376602378441
 10
38.511782013156854
 20
37.45376602378441
 10
38.617583612094094
 20
37.55956762272165
 10
38.72338521103134
 20
37.55956762272165
 10
38.82918680996858
 20
37.6653692216589
 10
38.93498840890583
 20
37.6653692216589
 10
39.04079000784307
 20
37.77117082059614
 10
39.14659160678031
 20
37.77117082059614
 10
39.25239320571756
 20
37.87697241953339
 10
39.46399640359205
 20
37.87697241953339
 10
39.56979800252929
 20
37.98277401847063
 10
39.78140120040378
 20
37.98277401847063
 10
39.887202799341026
 20
38.08857561740788
 10
40.098805997215514
 20
38.08857561740788
 10
40.204607596152755
 20
38.19437721634512
 10
40.41621079402724
 20
38.19437721634512
 10
40.52201239296449
 20
38.300178815282365
 10
41.05102038765071
 20
38.300178815282365
 10
41.15682198658795
 20
38.405980414219606
 10
42.003234778085904
 20
38.405980414219606
 10
42.10903637702315
 20
38.511782013156854
 10
44.859877949391496
 20
38.511782013156854
 10
44.965679548328744
 20
38.405980414219606
 10
45.28308434514047
 20
38.405980414219606
 10
45.388885944077714
 20
38.300178815282365
 10
45.6004891419522
 20
38.300178815282365
 10
45.70629074088945
 20
38.19437721634512
 10
45.91789393876394
 20
38.19437721634512
 10
46.02369553770118
 20
38.08857561740788
 10
46.23529873557567
 20
38.08857561740788
 10
46.44690193345016
 20
37.87697241953339
 10
46.552703532387405
 20
37.87697241953339
 10
46.658505131324645
 20
37.77117082059614
 10
46.658505131324645
 20
37.6653692216589
 10
46.870108329199134
 20
37.45376602378441
 10
46.870108329199134
 20
37.34796442484716
 10
46.97590992813638
 20
37.24216282590992
 10
46.97590992813638
 20
37.030559628035434
 10
47.08171152707362
 20
36.924758029098186
 10
47.08171152707362
 20
36.818956430160945
 10
47.29331472494811
 20
36.60735323228646
 10
47.29331472494811
 20
36.501551633349216
 10
47.39911632388535
 20
36.39575003441197
 10
47.39911632388535
 20
36.28994843547473
 10
48.03392591750882
 20
35.65513884185126
 10
48.139727516446065
 20
35.65513884185126
 10
48.457132313257794
 20
35.337734045039525
 10
48.457132313257794
 20
34.27971805566709
 10
48.56293391219504
 20
34.17391645672984
 10
48.56293391219504
 20
33.750710060980865
 10
48.66873551113228
 20
33.644908462043624
 10
48.66873551113228
 20
32.90429726948291
 10
48.77453711006953
 20
32.79849567054567
 10
48.77453711006953
 20
31.21147168648701
 10
48.66873551113228
 20
31.105670087549765
 10
48.66873551113228
 20
30.682463691800788
 10
48.56293391219504
 20
30.576662092863543
 10
48.56293391219504
 20
30.25925729605181
 10
48.457132313257794
 20
30.153455697114566
 10
48.457132313257794
 20
30.047654098177322
 10
48.351330714320554
 20
29.941852499240078
 10
48.351330714320554
 20
29.730249301365593
 10
48.245529115383306
 20
29.62444770242835
 10
48.245529115383306
 20
29.518646103491104
 10
48.139727516446065
 20
29.41284450455386
 10
48.139727516446065
 20
29.307042905616616
 10
48.03392591750882
 20
29.20124130667937
 10
48.03392591750882
 20
28.989638108804883
 10
47.92812431857158
 20
28.88383650986764
 10
47.92812431857158
 20
28.778034910930394
 10
47.82232271963433
 20
28.67223331199315
 10
47.82232271963433
 20
28.46063011411866
 10
47.71652112069709
 20
28.354828515181417
 10
47.71652112069709
 20
28.14322531730693
 10
47.61071952175984
 20
28.037423718369684
 10
47.61071952175984
 20
27.825820520495196
 10
47.5049179228226
 20
27.72001892155795
 10
47.5049179228226
 20
27.61421732262071
 10
47.39911632388535
 20
27.508415723683466
 10
47.39911632388535
 20
27.402614124746222
 10
47.18751312601086
 20
27.191010926871733
 10
47.18751312601086
 20
27.08520932793449
 10
46.658505131324645
 20
26.556201333248268
 10
46.658505131324645
 20
26.450399734311024
 10
46.341100334512916
 20
26.13299493749929
 10
46.23529873557567
 20
26.13299493749929
 10
45.81209233982669
 20
25.709788541750314
 10
45.70629074088945
 20
25.709788541750314
 10
44.754076350454255
 20
24.75757415131512
 10
44.64827475151701
 20
24.75757415131512
 10
44.43667155364252
 20
24.54597095344063
 10
44.33086995470528
 20
24.54597095344063
 10
44.22506835576803
 20
24.440169354503386
 10
44.11926675683079
 20
24.440169354503386
 10
44.01346515789354
 20
24.33436775556614
 10
43.9076635589563
 20
24.33436775556614
 10
43.80186196001905
 20
24.228566156628897
 10
43.69606036108181
 20
24.228566156628897
 10
43.590258762144565
 20
24.122764557691653
 10
43.484457163207324
 20
24.122764557691653
 10
43.378655564270076
 20
24.01696295875441
 10
43.16705236639559
 20
24.01696295875441
 10
43.06125076745835
 20
23.911161359817164
 10
42.84964756958386
 20
23.911161359817164
 10
42.74384597064662
 20
23.80535976087992
 10
42.53224277277213
 20
23.80535976087992
 10
42.42644117383488
 20
23.699558161942676
 10
42.10903637702315
 20
23.699558161942676
 10
42.003234778085904
 20
23.59375656300543
 10
41.791631580211416
 20
23.59375656300543
 10
41.685829981274175
 20
23.48795496406819
 10
41.36842518446244
 20
23.48795496406819
 10
41.2626235855252
 20
23.382153365130947
 10
40.73361559083898
 20
23.382153365130947
 10
40.62781399190173
 20
23.276351766193702
 10
39.887202799341026
 20
23.276351766193702
 10
39.78140120040378
 20
23.170550167256458
  0
LWPOLYLINE
  5
35
330
17
100
AcDbEntity
  8
0
100
AcDbPolyline
 90
41
 70
0
 10
24.863375750252363
 20
9.945350300100944
 10
24.75757415131512
 20
10.051151899038189
 10
24.651772552377874
 20
10.051151899038189
 10
24.54597095344063
 20
10.156953497975433
 10
24.54597095344063
 20
10.262755096912677
 10
24.440169354503386
 20
10.368556695849922
 10
24.440169354503386
 20
10.685961492661654
 10
24.54597095344063
 20
10.791763091598897
 10
24.54597095344063
 20
11.003366289473385
 10
24.651772552377874
 20
11.10916788841063
 10
24.651772552377874
 20
11.214969487347874
 10
24.863375750252363
 20
11.426572685222363
 10
24.969177349189607
 20
11.426572685222363
 10
25.07497894812685
 20
11.532374284159607
 10
25.180780547064096
 20
11.532374284159607
 10
25.28658214600134
 20
11.638175883096851
 10
25.49818534387583
 20
11.638175883096851
 10
25.709788541750314
 20
11.849779080971338
 10
25.815590140687558
 20
11.849779080971338
 10
25.921391739624802
 20
11.955580679908582
 10
26.027193338562046
 20
11.955580679908582
 10
26.13299493749929
 20
12.061382278845826
 10
26.34459813537378
 20
12.061382278845826
 10
26.450399734311024
 20
12.16718387778307
 10
26.556201333248268
 20
12.061382278845826
 10
26.767804531122756
 20
12.061382278845826
 10
26.87360613006
 20
11.955580679908582
 10
26.979407728997245
 20
11.955580679908582
 10
27.296812525808978
 20
11.638175883096851
 10
27.296812525808978
 20
11.532374284159607
 10
27.402614124746222
 20
11.426572685222363
 10
27.402614124746222
 20
11.003366289473385
 10
26.979407728997245
 20
10.58015989372441
 10
26.87360613006
 20
10.58015989372441
 10
26.767804531122756
 20
10.474358294787166
 10
26.662002932185512
 20
10.474358294787166
 10
26.34459813537378
 20
10.156953497975433
 10
26.238796536436535
 20
10.156953497975433
 10
26.13299493749929
 20
10.051151899038189
 10
25.49818534387583
 20
10.051151899038189
 10
25.392383744938584
 20
9.945350300100944
  0
LWPOLYLINE
  5
36
330
17
100
AcDbEntity
  8
0
100
AcDbPolyline
 90
13
 70
0
 10
26.34459813537378
 20
8.675731112854017
 10
26.13299493749929
 20
8.887334310728503
 10
26.13299493749929
 20
9.627945503289213
 10
26.238796536436535
 20
9.627945503289213
 10
26.34459813537378
 20
9.733747102226458
 10
26.450399734311024
 20
9.733747102226458
 10
26.556201333248268
 20
9.627945503289213
 10
26.662002932185512
 20
9.627945503289213
 10
26.767804531122756
 20
9.52214390435197
 10
26.767804531122756
 20
9.416342305414725
 10
26.87360613006
 20
9.31054070647748
 10
26.87360613006
 20
8.993135909665748
 10
26.556201333248268
 20
8.675731112854017
  0
LWPOLYLINE
  5
37
330
17
100
AcDbEntity
  8
0
100
AcDbPolyline
 90
7
 70
0
 10
26.662002932185512
 20
2.5392383744938583
 10
26.662002932185512
 20
2.6450399734311025
 10
26.556201333248268
 20
2.7508415723683464
 10
26.556201333248268
 20
2.8566431713055906
 10
26.767804531122756
 20
2.8566431713055906
 10
26.767804531122756
 20
2.7508415723683464
 10
26.662002932185512
 20
2.6450399734311025
  0
LWPOLYLINE
  5
38
330
17
100
AcDbEntity
  8
0
100
AcDbPolyline
 90
336
 70
0
 10
0.0
 20
0.0
 10
0.0
 20
1.058015989372441
 10
1.2696191872469291
 20
1.058015989372441
 10
1.3754207861841732
 20
1.163817588309685
 10
2.9624447702428345
 20
1.163817588309685
 10
3.0682463691800788
 20
1.2696191872469291
 10
4.0204607596152755
 20
1.2696191872469291
 10
4.12626235855252
 20
1.163817588309685
 10
4.337865556427008
 20
1.163817588309685
 10
4.443667155364252
 20
1.058015989372441
 10
9.31054070647748
 20
1.058015989372441
 10
9.416342305414725
 20
1.163817588309685
 10
10.58015989372441
 20
1.163817588309685
 10
10.685961492661654
 20
1.2696191872469291
 10
12.590390273532048
 20
1.2696191872469291
 10
12.696191872469292
 20
1.163817588309685
 10
13.119398268218267
 20
1.163817588309685
 10
13.225199867155512
 20
1.2696191872469291
 10
13.542604663967245
 20
1.2696191872469291
 10
13.648406262904489
 20
1.3754207861841732
 10
14.071612658653464
 20
1.3754207861841732
 10
14.177414257590709
 20
1.4812223851214172
 10
15.129628648025905
 20
1.4812223851214172
 10
15.23543024696315
 20
1.3754207861841732
 10
15.976041439523858
 20
1.3754207861841732
 10
16.081843038461102
 20
1.4812223851214172
 10
17.986271819331495
 20
1.4812223851214172
 10
18.09207341826874
 20
1.3754207861841732
 10
22.00673257894677
 20
1.3754207861841732
 10
22.112534177884015
 20
1.4812223851214172
 10
23.170550167256458
 20
1.4812223851214172
 10
23.276351766193702
 20
1.3754207861841732
 10
25.392383744938584
 20
1.3754207861841732
 10
25.49818534387583
 20
1.4812223851214172
 10
25.709788541750314
 20
1.4812223851214172
 10
25.815590140687558
 20
1.5870239840586615
 10
25.921391739624802
 20
1.5870239840586615
 10
26.027193338562046
 20
1.6928255829959056
 10
26.13299493749929
 20
1.6928255829959056
 10
26.238796536436535
 20
1.7986271819331496
 10
26.34459813537378
 20
1.7986271819331496
 10
26.450399734311024
 20
1.9044287808703937
 10
26.979407728997245
 20
1.9044287808703937
 10
27.08520932793449
 20
1.7986271819331496
 10
27.61421732262071
 20
1.7986271819331496
 10
27.72001892155795
 20
1.6928255829959056
 10
28.354828515181417
 20
1.6928255829959056
 10
28.46063011411866
 20
1.7986271819331496
 10
28.989638108804883
 20
1.7986271819331496
 10
29.095439707742127
 20
1.9044287808703937
 10
30.894066889675276
 20
1.9044287808703937
 10
30.99986848861252
 20
2.0102303798076377
 10
35.97254363866299
 20
2.0102303798076377
 10
36.07834523760024
 20
1.9044287808703937
 10
37.24216282590992
 20
1.9044287808703937
 10
37.34796442484716
 20
2.0102303798076377
 10
39.04079000784307
 20
2.0102303798076377
 10
39.14659160678031
 20
1.9044287808703937
 10
41.05102038765071
 20
1.9044287808703937
 10
41.15682198658795
 20
2.0102303798076377
 10
43.80186196001905
 20
2.0102303798076377
 10
43.9076635589563
 20
1.9044287808703937
 10
45.6004891419522
 20
1.9044287808703937
 10
45.70629074088945
 20
2.0102303798076377
 10
49.51514830263024
 20
2.0102303798076377
 10
49.62094990156748
 20
1.9044287808703937
 10
55.01683144736693
 20
1.9044287808703937
 10
55.12263304630417
 20
1.7986271819331496
 10
56.28645063461386
 20
1.7986271819331496
 10
56.392252233551105
 20
1.9044287808703937
 10
61.682332180413304
 20
1.9044287808703937
 10
61.78813377935055
 20
1.7986271819331496
 10
62.10553857616228
 20
1.7986271819331496
 10
62.21134017509953
 20
1.9044287808703937
 10
65.91439613790307
 20
1.9044287808703937
 10
66.02019773684032
 20
1.7986271819331496
 10
72.68569846988669
 20
1.7986271819331496
 10
72.79150006882394
 20
1.6928255829959056
 10
74.27272245394535
 20
1.6928255829959056
 10
74.3785240528826
 20
1.7986271819331496
 10
74.59012725075709
 20
1.7986271819331496
 10
74.69592884969433
 20
1.6928255829959056
 10
75.64814324012953
 20
1.6928255829959056
 10
75.75394483906678
 20
1.5870239840586615
 10
76.49455603162748
 20
1.5870239840586615
 10
76.60035763056473
 20
1.4812223851214172
 10
77.55257202099992
 20
1.4812223851214172
 10
77.65837361993717
 20
1.5870239840586615
 10
77.76417521887441
 20
1.5870239840586615
 10
77.86997681781166
 20
1.6928255829959056
 10
77.9757784167489
 20
1.6928255829959056
 10
78.39898481249787
 20
2.116031978744882
 10
78.39898481249787
 20
2.6450399734311025
 10
78.29318321356062
 20
2.7508415723683464
 10
78.29318321356062
 20
2.8566431713055906
 10
77.86997681781166
 20
3.279849567054567
 10
77.86997681781166
 20
3.385651165991811
 10
77.76417521887441
 20
3.491452764929055
 10
77.76417521887441
 20
3.5972543638662993
 10
77.65837361993717
 20
3.7030559628035435
 10
77.65837361993717
 20
4.0204607596152755
 10
77.55257202099992
 20
4.12626235855252
 10
77.55257202099992
 20
4.761071952175985
 10
77.44677042206268
 20
4.866873551113229
 10
77.44677042206268
 20
6.030691139422913
 10
77.55257202099992
 20
6.1364927383601575
 10
77.55257202099992
 20
7.300310326669843
 10
77.65837361993717
 20
7.406111925607087
 10
77.65837361993717
 20
8.146723118167795
 10
77.76417521887441
 20
8.25252471710504
 10
77.76417521887441
 20
9.627945503289213
 10
77.65837361993717
 20
9.733747102226458
 10
77.65837361993717
 20
11.849779080971338
 10
77.55257202099992
 20
11.955580679908582
 10
77.55257202099992
 20
13.43680306503
 10
77.65837361993717
 20
13.542604663967245
 10
77.65837361993717
 20
16.081843038461102
 10
77.76417521887441
 20
16.187644637398346
 10
77.76417521887441
 20
21.900930980009527
 10
77.86997681781166
 20
22.00673257894677
 10
77.86997681781166
 20
23.276351766193702
 10
77.76417521887441
 20
23.382153365130947
 10
77.76417521887441
 20
24.651772552377874
 10
77.86997681781166
 20
24.75757415131512
 10
77.86997681781166
 20
26.450399734311024
 10
77.76417521887441
 20
26.556201333248268
 10
77.76417521887441
 20
27.61421732262071
 10
77.86997681781166
 20
27.72001892155795
 10
77.86997681781166
 20
31.84628128011047
 10
77.9757784167489
 20
31.952082879047715
 10
77.9757784167489
 20
36.39575003441197
 10
78.08158001568614
 20
36.501551633349216
 10
78.08158001568614
 20
37.136361226972674
 10
78.18738161462339
 20
37.24216282590992
 10
78.18738161462339
 20
39.887202799341026
 10
78.29318321356062
 20
39.993004398278266
 10
78.29318321356062
 20
41.89743317914866
 10
78.39898481249787
 20
42.003234778085904
 10
78.39898481249787
 20
42.42644117383488
 10
78.50478641143512
 20
42.53224277277213
 10
78.50478641143512
 20
43.272853965332835
 10
78.61058801037237
 20
43.378655564270076
 10
78.61058801037237
 20
44.43667155364252
 10
78.7163896093096
 20
44.54247315257977
 10
78.7163896093096
 20
45.071481147265985
 10
78.82219120824685
 20
45.177282746203225
 10
78.82219120824685
 20
45.28308434514047
 10
78.9279928071841
 20
45.388885944077714
 10
78.9279928071841
 20
45.49468754301496
 10
79.03379440612134
 20
45.6004891419522
 10
79.03379440612134
 20
45.70629074088945
 10
79.13959600505858
 20
45.81209233982669
 10
79.13959600505858
 20
45.91789393876394
 10
79.24539760399583
 20
46.02369553770118
 10
79.24539760399583
 20
46.23529873557567
 10
79.35119920293307
 20
46.341100334512916
 10
79.35119920293307
 20
46.870108329199134
 10
79.45700080187032
 20
46.97590992813638
 10
79.45700080187032
 20
47.08171152707362
 10
79.56280240080756
 20
47.08171152707362
 10
79.6686039997448
 20
47.18751312601086
 10
79.98600879655653
 20
47.18751312601086
 10
80.09181039549378
 20
47.29331472494811
 10
80.51501679124276
 20
47.29331472494811
 10
80.62081839018
 20
47.39911632388535
 10
80.72661998911724
 20
47.39911632388535
 10
80.83242158805449
 20
47.5049179228226
 10
80.93822318699173
 20
47.5049179228226
 10
81.78463597848969
 20
48.351330714320554
 10
81.89043757742694
 20
48.351330714320554
 10
82.10204077530142
 20
48.56293391219504
 10
82.20784237423867
 20
48.56293391219504
 10
82.3136439731759
 20
48.66873551113228
 10
82.5252471710504
 20
48.66873551113228
 10
82.63104876998764
 20
48.77453711006953
 10
82.73685036892488
 20
48.77453711006953
 10
82.84265196786212
 20
48.88033870900677
 10
82.94845356679937
 20
48.88033870900677
 10
83.05425516573662
 20
48.98614030794402
 10
83.2658583636111
 20
48.98614030794402
 10
83.37165996254835
 20
49.09194190688126
 10
83.58326316042283
 20
49.09194190688126
 10
83.68906475936008
 20
49.19774350581851
 10
83.90066795723457
 20
49.19774350581851
 10
84.00646955617181
 20
49.30354510475575
 10
84.32387435298354
 20
49.30354510475575
 10
84.42967595192079
 20
49.40934670369299
 10
84.95868394660701
 20
49.40934670369299
 10
85.06448554554426
 20
49.51514830263024
 10
85.38189034235599
 20
49.51514830263024
 10
85.48769194129324
 20
49.62094990156748
 10
85.69929513916772
 20
49.62094990156748
 10
85.80509673810496
 20
49.726751500504726
 10
85.91089833704221
 20
49.726751500504726
 10
86.1225015349167
 20
49.938354698379214
 10
86.22830313385394
 20
49.938354698379214
 10
86.43990633172842
 20
50.1499578962537
 10
86.43990633172842
 20
50.255759495190944
 10
86.65150952960292
 20
50.46736269306543
 10
86.65150952960292
 20
51.631180281375116
 10
86.54570793066567
 20
51.736981880312364
 10
86.54570793066567
 20
52.26598987499858
 10
86.43990633172842
 20
52.37179147393583
 10
86.43990633172842
 20
52.68919627074756
 10
86.33410473279118
 20
52.794997869684806
 10
86.33410473279118
 20
52.90079946862205
 10
85.69929513916772
 20
53.53560906224551
 10
85.48769194129324
 20
53.53560906224551
 10
85.38189034235599
 20
53.64141066118275
 10
85.17028714448149
 20
53.64141066118275
 10
85.06448554554426
 20
53.74721226012
 10
84.64127914979528
 20
53.74721226012
 10
84.53547755085803
 20
53.85301385905724
 10
83.90066795723457
 20
53.85301385905724
 10
83.79486635829733
 20
53.95881545799449
 10
83.05425516573662
 20
53.95881545799449
 10
82.94845356679937
 20
54.06461705693173
 10
79.03379440612134
 20
54.06461705693173
 10
78.9279928071841
 20
54.17041865586898
 10
78.82219120824685
 20
54.17041865586898
 10
78.50478641143512
 20
54.48782345268071
 10
78.50478641143512
 20
54.593625051617956
 10
78.39898481249787
 20
54.699426650555196
 10
78.39898481249787
 20
55.12263304630417
 10
78.29318321356062
 20
55.22843464524142
 10
78.29318321356062
 20
56.392252233551105
 10
78.39898481249787
 20
56.498053832488345
 10
78.39898481249787
 20
56.709657030362834
 10
78.50478641143512
 20
56.81545862930008
 10
78.50478641143512
 20
56.92126022823732
 10
78.61058801037237
 20
57.02706182717457
 10
78.61058801037237
 20
57.13286342611181
 10
79.03379440612134
 20
57.55606982186079
 10
79.03379440612134
 20
57.66187142079803
 10
79.24539760399583
 20
57.87347461867252
 10
79.24539760399583
 20
58.085077816547006
 10
79.35119920293307
 20
58.190879415484254
 10
79.35119920293307
 20
59.14309380591945
 10
79.13959600505858
 20
59.35469700379394
 10
79.03379440612134
 20
59.35469700379394
 10
78.82219120824685
 20
59.566300201668426
 10
78.7163896093096
 20
59.566300201668426
 10
78.7163896093096
 20
59.67210180060567
 10
78.61058801037237
 20
59.777903399542915
 10
78.61058801037237
 20
59.883704998480155
 10
78.50478641143512
 20
59.9895065974174
 10
78.50478641143512
 20
60.20110979529189
 10
78.39898481249787
 20
60.30691139422913
 10
78.39898481249787
 20
60.51851459210362
 10
78.29318321356062
 20
60.62431619104087
 10
78.29318321356062
 20
60.9417209878526
 10
78.18738161462339
 20
61.047522586789846
 10
78.18738161462339
 20
61.15332418572709
 10
77.65837361993717
 20
61.682332180413304
 10
77.55257202099992
 20
61.682332180413304
 10
77.44677042206268
 20
61.78813377935055
 10
77.23516722418819
 20
61.78813377935055
 10
77.12936562525094
 20
61.89393537828779
 10
67.28981692408725
 20
61.89393537828779
 10
67.18401532515
 20
61.99973697722504
 10
66.4434041325893
 20
61.99973697722504
 10
66.33760253365205
 20
62.10553857616228
 10
64.85638014853063
 20
62.10553857616228
 10
64.75057854959338
 20
61.99973697722504
 10
62.951951367660236
 20
61.99973697722504
 10
62.846149768722995
 20
62.10553857616228
 10
62.42294337297402
 20
62.10553857616228
 10
62.31714177403677
 20
62.21134017509953
 10
61.99973697722504
 20
62.21134017509953
 10
61.89393537828779
 20
62.31714177403677
 10
61.364927383601575
 20
62.31714177403677
 10
61.259125784664334
 20
62.21134017509953
 10
60.83591938891536
 20
62.21134017509953
 10
60.73011778997811
 20
62.10553857616228
 10
59.67210180060567
 20
62.10553857616228
 10
59.566300201668426
 20
62.21134017509953
 10
59.14309380591945
 20
62.21134017509953
 10
59.03729220698221
 20
62.31714177403677
 10
58.71988741017047
 20
62.31714177403677
 10
58.61408581123323
 20
62.42294337297402
 10
58.085077816547006
 20
62.42294337297402
 10
57.979276217609765
 20
62.31714177403677
 10
57.76767301973528
 20
62.31714177403677
 10
57.66187142079803
 20
62.21134017509953
 10
57.45026822292354
 20
62.21134017509953
 10
57.3444666239863
 20
62.10553857616228
 10
56.92126022823732
 20
62.10553857616228
 10
56.81545862930008
 20
61.99973697722504
 10
55.54583944205315
 20
61.99973697722504
 10
55.4400378431159
 20
62.10553857616228
 10
54.805228249492444
 20
62.10553857616228
 10
54.699426650555196
 20
62.21134017509953
 10
53.95881545799449
 20
62.21134017509953
 10
53.85301385905724
 20
62.10553857616228
 10
53.53560906224551
 20
62.10553857616228
 10
53.429807463308265
 20
61.99973697722504
 10
50.255759495190944
 20
61.99973697722504
 10
50.1499578962537
 20
62.10553857616228
 10
47.92812431857158
 20
62.10553857616228
 10
47.82232271963433
 20
61.99973697722504
 10
47.39911632388535
 20
61.99973697722504
 10
47.29331472494811
 20
62.10553857616228
 10
46.44690193345016
 20
62.10553857616228
 10
46.341100334512916
 20
62.21134017509953
 10
45.70629074088945
 20
62.21134017509953
 10
45.6004891419522
 20
62.10553857616228
 10
44.22506835576803
 20
62.10553857616228
 10
44.11926675683079
 20
62.21134017509953
 10
42.003234778085904
 20
62.21134017509953
 10
41.89743317914866
 20
62.31714177403677
 10
41.36842518446244
 20
62.31714177403677
 10
41.2626235855252
 20
62.42294337297402
 10
40.62781399190173
 20
62.42294337297402
 10
40.52201239296449
 20
62.52874497191126
 10
40.098805997215514
 20
62.52874497191126
 10
39.993004398278266
 20
62.42294337297402
 10
39.14659160678031
 20
62.42294337297402
 10
39.04079000784307
 20
62.31714177403677
 10
38.08857561740788
 20
62.31714177403677
 10
37.98277401847063
 20
62.42294337297402
 10
37.45376602378441
 20
62.42294337297402
 10
37.34796442484716
 20
62.52874497191126
 10
36.713154831223704
 20
62.52874497191126
 10
36.60735323228646
 20
62.63454657084851
 10
36.501551633349216
 20
62.63454657084851
 10
36.39575003441197
 20
62.52874497191126
 10
35.549337242914014
 20
62.52874497191126
 10
35.44353564397677
 20
62.42294337297402
 10
33.539106863106376
 20
62.42294337297402
 10
33.433305264169135
 20
62.52874497191126
 10
33.1159004673574
 20
62.52874497191126
 10
33.01009886842016
 20
62.63454657084851
 10
32.90429726948291
 20
62.63454657084851
 10
32.90429726948291
 20
62.74034816978575
 10
88.23853351366158
 20
62.74034816978575
 10
88.23853351366158
 20
0.0
  0
ENDSEC
  0
SECTION
  2
OBJECTS
  0
DICTIONARY
  5
A
330
0
100
AcDbDictionary
281
1
  3
ACAD_COLOR
350
B
  3
ACAD_GROUP
350
C
  3
ACAD_LAYOUT
350
D
  3
ACAD_MATERIAL
350
E
  3
ACAD_MLEADERSTYLE
350
F
  3
ACAD_MLINESTYLE
350
10
  3
ACAD_PLOTSETTINGS
350
11
  3
ACAD_PLOTSTYLENAME
350
12
  3
ACAD_SCALELIST
350
14
  3
ACAD_TABLESTYLE
350
15
  3
ACAD_VISUALSTYLE
350
16
  3
EZDXF_META
350
2D
  0
DICTIONARY
  5
B
330
A
100
AcDbDictionary
281
1
  0
DICTIONARY
  5
C
330
A
100
AcDbDictionary
281
1
  0
DICTIONARY
  5
D
330
A
100
AcDbDictionary
281
1
  3
Model
350
1A
  3
Layout1
350
1E
  0
DICTIONARY
  5
E
330
A
100
AcDbDictionary
281
1
  3
ByBlock
350
1F
  3
ByLayer
350
20
  3
Global
350
21
  0
DICTIONARY
  5
F
330
A
100
AcDbDictionary
281
1
  3
Standard
350
2C
  0
DICTIONARY
  5
10
330
A
100
AcDbDictionary
281
1
  3
Standard
350
22
  0
DICTIONARY
  5
11
330
A
100
AcDbDictionary
281
1
  0
ACDBDICTIONARYWDFLT
  5
12
330
A
100
AcDbDictionary
281
1
  3
Normal
350
13
100
AcDbDictionaryWithDefault
340
13
  0
ACDBPLACEHOLDER
  5
13
330
12
  0
DICTIONARY
  5
14
330
A
100
AcDbDictionary
281
1
  0
DICTIONARY
  5
15
330
A
100
AcDbDictionary
281
1
  0
DICTIONARY
  5
16
330
A
100
AcDbDictionary
281
1
  0
LAYOUT
  5
1A
330
D
100
AcDbPlotSettings
  1

  4
A3
  6

 40
7.5
 41
20.0
 42
7.5
 43
20.0
 44
420.0
 45
297.0
 46
0.0
 47
0.0
 48
0.0
 49
0.0
140
0.0
141
0.0
142
1.0
143
1.0
 70
1024
 72
1
 73
0
 74
5
  7

 75
16
 76
0
 77
2
 78
300
147
1.0
148
0.0
149
0.0
100
AcDbLayout
  1
Model
 70
1
 71
0
 10
0.0
 20
0.0
 11
420.0
 21
297.0
 12
0.0
 22
0.0
 32
0.0
 14
1e+20
 24
1e+20
 34
1e+20
 15
-1e+20
 25
-1e+20
 35
-1e+20
146
0.0
 13
0.0
 23
0.0
 33
0.0
 16
1.0
 26
0.0
 36
0.0
 17
0.0
 27
1.0
 37
0.0
 76
1
330
17
  0
LAYOUT
  5
1E
330
D
100
AcDbPlotSettings
  1

  4
A3
  6

 40
7.5
 41
20.0
 42
7.5
 43
20.0
 44
420.0
 45
297.0
 46
0.0
 47
0.0
 48
0.0
 49
0.0
140
0.0
141
0.0
142
1.0
143
1.0
 70
0
 72
1
 73
0
 74
5
  7

 75
16
 76
0
 77
2
 78
300
147
1.0
148
0.0
149
0.0
100
AcDbLayout
  1
Layout1
 70
1
 71
1
 10
0.0
 20
0.0
 11
420.0
 21
297.0
 12
0.0
 22
0.0
 32
0.0
 14
1e+20
 24
1e+20
 34
1e+20
 15
-1e+20
 25
-1e+20
 35
-1e+20
146
0.0
 13
0.0
 23
0.0
 33
0.0
 16
1.0
 26
0.0
 36
0.0
 17
0.0
 27
1.0
 37
0.0
 76
1
330
1B
  0
MATERIAL
  5
1F
102
{ACAD_REACTORS
330
E
102
}
330
E
100
AcDbMaterial
  1
ByBlock
  2

 70
0
 40
1.0
 71
1
 41
1.0
 91
-1023410177
 42
1.0
 72
1
  3

 73
1
 74
1
 75
1
 44
0.5
 73
0
 45
1.0
 46
1.0
 77
1
  4

 78
1
 79
1
170
1
 48
1.0
171
1
  6

172
1
173
1
174
1
140
1.0
141
1.0
175
1
  7

176
1
177
1
178
1
143
1.0
179
1
  8

270
1
271
1
272
1
145
1.0
146
1.0
273
1
  9

274
1
275
1
276
1
 42
1.0
 72
1
  3

 73
1
 74
1
 75
1
 94
63
  0
MATERIAL
  5
20
102
{ACAD_REACTORS
330
E
102
}
330
E
100
AcDbMaterial
  1
ByLayer
  2

 70
0
 40
1.0
 71
1
 41
1.0
 91
-1023410177
 42
1.0
 72
1
  3

 73
1
 74
1
 75
1
 44
0.5
 73
0
 45
1.0
 46
1.0
 77
1
  4

 78
1
 79
1
170
1
 48
1.0
171
1
  6

172
1
173
1
174
1
140
1.0
141
1.0
175
1
  7

176
1
177
1
178
1
143
1.0
179
1
  8

270
1
271
1
272
1
145
1.0
146
1.0
273
1
  9

274
1
275
1
276
1
 42
1.0
 72
1
  3

 73
1
 74
1
 75
1
 94
63
  0
MATERIAL
  5
21
102
{ACAD_REACTORS
330
E
102
}
330
E
100
AcDbMaterial
  1
Global
  2

 70
0
 40
1.0
 71
1
 41
1.0
 91
-1023410177
 42
1.0
 72
1
  3

 73
1
 74
1
 75
1
 44
0.5
 73
0
 45
1.0
 46
1.0
 77
1
  4

 78
1
 79
1
170
1
 48
1.0
171
1
  6

172
1
173
1
174
1
140
1.0
141
1.0
175
1
  7

176
1
177
1
178
1
143
1.0
179
1
  8

270
1
271
1
272
1
145
1.0
146
1.0
273
1
  9

274
1
275
1
276
1
 42
1.0
 72
1
  3

 73
1
 74
1
 75
1
 94
63
  0
MLINESTYLE
  5
22
102
{ACAD_REACTORS
330
10
102
}
330
10
100
AcDbMlineStyle
  2
Standard
 70
0
  3

 62
256
 51
90.0
 52
90.0
 71
2
 49
0.5
 62
256
  6
BYLAYER
 49
-0.5
 62
256
  6
BYLAYER
  0
MLEADERSTYLE
  5
2C
102
{ACAD_REACTORS
330
F
102
}
330
F
100
AcDbMLeaderStyle
179
2
170
2
171
1
172
0
 90
2
 40
0.0
 41
0.0
173
1
 91
-1056964608
 92
-2
290
1
 42
2.0
291
1
 43
8.0
  3
Standard
 44
4.0
300

342
29
174
1
175
1
176
0
178
1
 93
-1056964608
 45
4.0
292
0
297
0
 46
4.0
 94
-1056964608
 47
1.0
 49
1.0
140
1.0
294
1
141
0.0
177
0
142
1.0
295
0
296
0
143
3.75
271
0
272
9
273
9
  0
DICTIONARY
  5
2D
330
A
100
AcDbDictionary
280
1
281
1
  3
CREATED_BY_EZDXF
350
2E
  3
WRITTEN_BY_EZDXF
350
3B
  0
DICTIONARYVAR
  5
2E
330
2D
100
DictionaryVariables
280
0
  1
1.4.2 @ 2025-06-09T07:24:47.205326+00:00
  0
DICTIONARYVAR
  5
3B
330
2D
100
DictionaryVariables
280
0
  1
1.4.2 @ 2025-06-09T07:24:47.226638+00:00
  0
ENDSEC
  0
EOF
